<svg width="32" height="32" viewBox="0 0 32 32" fill="none" xmlns="http://www.w3.org/2000/svg">
<path d="M23.3333 10.667V14.667M23.3333 14.667H19.3333M23.3333 14.667L20.24 11.7604C19.5235 11.0435 18.637 10.5198 17.6634 10.2382C16.6898 9.9566 15.6607 9.92621 14.6721 10.1499C13.6836 10.3736 12.7678 10.844 12.0103 11.5173C11.2527 12.1906 10.6781 13.0449 10.34 14.0004M8.66663 21.3337V17.3337M8.66663 17.3337H12.6666M8.66663 17.3337L11.76 20.2404C12.4765 20.9572 13.3629 21.4809 14.3365 21.7625C15.3101 22.0441 16.3392 22.0745 17.3278 21.8509C18.3163 21.6272 19.2321 21.1568 19.9896 20.4834C20.7472 19.8101 21.3218 18.9559 21.66 18.0004" stroke="#F3F3F3" stroke-linecap="round" stroke-linejoin="round"/>
</svg>
