<svg width="16" height="17" viewBox="0 0 16 17" fill="none" xmlns="http://www.w3.org/2000/svg">
<path d="M14.6668 7.88674V8.50007C14.666 9.93769 14.2005 11.3365 13.3397 12.488C12.4789 13.6394 11.269 14.4817 9.8904 14.8893C8.51178 15.297 7.03834 15.248 5.68981 14.7498C4.34128 14.2516 3.18993 13.3308 2.40747 12.1248C1.62501 10.9188 1.25336 9.49211 1.34795 8.05761C1.44254 6.62311 1.9983 5.25762 2.93235 4.16479C3.8664 3.07195 5.12869 2.31033 6.53096 1.9935C7.93323 1.67668 9.40034 1.82163 10.7135 2.40674M14.6668 3.16674L8.00017 9.84007L6.00017 7.84007" stroke="#040404" stroke-linecap="round" stroke-linejoin="round"/>
<path d="M14.6668 7.88674V8.50007C14.666 9.93769 14.2005 11.3365 13.3397 12.488C12.4789 13.6394 11.269 14.4817 9.8904 14.8893C8.51178 15.297 7.03834 15.248 5.68981 14.7498C4.34128 14.2516 3.18993 13.3308 2.40747 12.1248C1.62501 10.9188 1.25336 9.49211 1.34795 8.05761C1.44254 6.62311 1.9983 5.25762 2.93235 4.16479C3.8664 3.07195 5.12869 2.31033 6.53096 1.9935C7.93323 1.67668 9.40034 1.82163 10.7135 2.40674M14.6668 3.16674L8.00017 9.84007L6.00017 7.84007" stroke="url(#paint0_linear_50_4129)" stroke-linecap="round" stroke-linejoin="round"/>
<defs>
<linearGradient id="paint0_linear_50_4129" x1="8.00826" y1="7.36418" x2="8.08542" y2="1.83067" gradientUnits="userSpaceOnUse">
<stop stop-color="#7F42FA"/>
<stop offset="1" stop-color="#9E83FF"/>
</linearGradient>
</defs>
</svg>
