<svg width="16" height="17" viewBox="0 0 16 17" fill="none" xmlns="http://www.w3.org/2000/svg">
<g clip-path="url(#clip0_92_1406)">
<path d="M11.9603 12.4598C10.8207 13.3285 9.43306 13.8097 8.00033 13.8332C3.33366 13.8332 0.666992 8.49984 0.666992 8.49984C1.49625 6.95443 2.64642 5.60424 4.04033 4.53984M6.60032 3.3265C7.05921 3.21909 7.52903 3.1654 8.00033 3.1665C12.667 3.1665 15.3337 8.49984 15.3337 8.49984C14.929 9.25691 14.4464 9.96966 13.8937 10.6265M9.41366 9.91317C9.23056 10.1097 9.00976 10.2673 8.76443 10.3766C8.51909 10.4859 8.25426 10.5447 7.98572 10.5494C7.71718 10.5542 7.45043 10.5048 7.2014 10.4042C6.95236 10.3036 6.72614 10.1539 6.53622 9.96394C6.34631 9.77402 6.19659 9.5478 6.096 9.29876C5.99541 9.04973 5.94601 8.78298 5.95075 8.51444C5.95549 8.2459 6.01426 7.98107 6.12358 7.73574C6.23289 7.4904 6.39049 7.2696 6.58699 7.0865M0.666992 1.1665L15.3337 15.8332" stroke="#040404" stroke-linecap="round" stroke-linejoin="round"/>
</g>
<defs>
<clipPath id="clip0_92_1406">
<rect width="16" height="16" fill="white" transform="translate(0 0.5)"/>
</clipPath>
</defs>
</svg>
