<svg width="182" height="71" viewBox="0 0 182 71" fill="none" xmlns="http://www.w3.org/2000/svg">
<g clip-path="url(#clip0_2_645)">
<mask id="mask0_2_645" style="mask-type:luminance" maskUnits="userSpaceOnUse" x="0" y="0" width="182" height="71">
<path d="M181.5 0H0.5V71H181.5V0Z" fill="white"/>
</mask>
<g mask="url(#mask0_2_645)">
<path d="M63.6934 41.7224C66.8273 45.4949 79.0483 47.955 88.8247 47.955C107.65 47.955 131.65 36.1282 143.695 28.8942C156.015 21.495 164.602 18.3847 180.805 19.059" stroke="#F3F3F3" stroke-width="0.5"/>
<path d="M63.6934 48.6758C66.8273 52.4482 79.0483 54.9084 88.8247 54.9084C107.65 54.9084 131.65 43.0816 143.695 35.8476C156.015 28.4483 164.602 25.3381 180.805 26.0124" stroke="#F3F3F3" stroke-width="0.5"/>
<path d="M63.6934 55.2842C66.8273 59.0566 79.0483 61.5168 88.8247 61.5168C107.65 61.5168 131.65 49.69 143.695 42.456C156.015 35.0567 164.602 31.9465 180.805 32.6208" stroke="#F3F3F3" stroke-width="0.5"/>
<path d="M63.6934 62.2812C66.8273 66.0537 79.0483 68.5139 88.8247 68.5139C107.65 68.5139 131.65 56.6871 143.695 49.4531C156.015 42.0538 164.602 38.9435 180.805 39.6178" stroke="#F3F3F3" stroke-width="0.5"/>
<path d="M63.6934 33.5151C66.8273 37.2876 79.0483 39.7478 88.8247 39.7478C107.65 39.7478 131.65 27.921 143.695 20.6869C156.015 13.2877 164.602 10.1774 180.805 10.8517" stroke="#F3F3F3" stroke-width="0.5"/>
<path d="M86.7087 46.8421C86.3611 40.2978 84.4518 37.1283 82.5375 35.7671C79.3622 33.5092 74.4662 36.7948 73.6786 41.808C73.5527 42.6104 75.222 42.9402 76.0103 42.3492C77.5141 41.2225 79.9361 42.6009 79.3243 46.895C78.8377 50.3171 73.7795 52.6711 73.5 44.099C73.5 30.9832 89.4867 31.7806 89.0168 45.874C88.8916 63.735 74.8633 70.6549 73.9275 69.5434C73.9275 69.5434 74.8904 69.6633 75.8562 69.218C77.6712 68.4781 80.3197 66.6958 82.1899 63.958C85.0061 59.8354 87.1282 54.7392 86.7087 46.8421Z" fill="#F3F3F3" stroke="#F3F3F3" stroke-width="0.777465" stroke-linecap="round" stroke-linejoin="round"/>
<path d="M92.9201 43.1607C93.7087 43.1607 94.348 42.2348 94.348 41.0927C94.348 39.9505 93.7087 39.0247 92.9201 39.0247C92.1315 39.0247 91.4922 39.9505 91.4922 41.0927C91.4922 42.2348 92.1315 43.1607 92.9201 43.1607Z" fill="#F3F3F3" stroke="#F3F3F3" stroke-width="0.583099" stroke-linecap="round" stroke-linejoin="round"/>
<path d="M92.9201 53.3145C93.7087 53.3145 94.348 52.3886 94.348 51.2465C94.348 50.1043 93.7087 49.1785 92.9201 49.1785C92.1315 49.1785 91.4922 50.1043 91.4922 51.2465C91.4922 52.3886 92.1315 53.3145 92.9201 53.3145Z" fill="#F3F3F3" stroke="#F3F3F3" stroke-width="0.583099" stroke-linecap="round" stroke-linejoin="round"/>
<path d="M24.6127 26.8C24.7194 25.4987 24.922 24.048 25.2207 22.448C25.5407 20.8267 25.9034 19.1733 26.3087 17.488C26.7354 15.7813 27.194 14.1173 27.6847 12.496C28.1967 10.8747 28.7087 9.3813 29.2207 8.01597C29.754 6.65064 30.266 5.5093 30.7567 4.59197C29.7114 5.4453 28.6874 6.49064 27.6847 7.72797C26.682 8.94397 25.7114 10.256 24.7727 11.664C23.8554 13.0507 22.9807 14.4267 22.1487 15.792C21.338 17.136 20.602 18.3733 19.9407 19.504C19.2794 20.6347 18.714 21.552 18.2447 22.256C17.9034 22.768 17.4767 23.408 16.9647 24.176C16.4527 24.944 15.8554 25.7547 15.1727 26.608C14.49 27.4613 13.7114 28.2613 12.8367 29.008C11.9834 29.7547 11.034 30.3627 9.98869 30.832C8.94335 31.3013 7.80202 31.536 6.56469 31.536C5.30602 31.536 4.25002 31.2587 3.39669 30.704C2.54335 30.1707 1.89269 29.4667 1.44469 28.592C1.01802 27.7173 0.804688 26.8 0.804688 25.84C0.804688 24.8373 1.01802 23.8667 1.44469 22.928C1.87135 21.968 2.43669 21.0827 3.14069 20.272C3.86602 19.4613 4.67669 18.7787 5.57269 18.224C6.49002 17.6693 7.42869 17.2853 8.38869 17.072C8.47402 17.0507 8.54869 17.04 8.61269 17.04C8.76202 17.04 8.83669 17.104 8.83669 17.232C8.83669 17.296 8.71935 17.392 8.48469 17.52C6.67135 18.5013 5.31669 19.7387 4.42069 21.232C3.52469 22.7253 3.07669 24.1973 3.07669 25.648C3.07669 26.4587 3.25802 27.2053 3.62069 27.888C3.98335 28.5707 4.48469 29.104 5.12469 29.488C5.76469 29.8933 6.50069 30.096 7.33269 30.096C8.46335 30.096 9.49802 29.84 10.4367 29.328C11.3754 28.8373 12.2394 28.176 13.0287 27.344C13.818 26.5333 14.5647 25.648 15.2687 24.688C15.994 23.7067 16.6874 22.7467 17.3487 21.808C17.7754 21.232 18.2874 20.4533 18.8847 19.472C19.482 18.4693 20.154 17.36 20.9007 16.144C21.6687 14.9067 22.4794 13.6373 23.3327 12.336C24.2074 11.0347 25.114 9.77597 26.0527 8.55997C26.9914 7.34397 27.9407 6.2453 28.9007 5.26397C29.882 4.28264 30.8634 3.50397 31.8447 2.92797C32.0794 2.77864 32.2927 2.67197 32.4847 2.60797C32.698 2.54397 32.9967 2.51197 33.3807 2.51197C33.6367 2.51197 33.7327 2.5973 33.6687 2.76797C33.6047 2.9173 33.498 3.09864 33.3487 3.31197C32.858 4.05864 32.346 5.0613 31.8127 6.31997C31.3007 7.5573 30.7887 8.9653 30.2767 10.544C29.786 12.1227 29.3167 13.7653 28.8687 15.472C28.4207 17.1787 28.0154 18.8853 27.6527 20.592C27.29 22.2773 27.002 23.8453 26.7887 25.296C28.8367 21.6053 30.8847 18.256 32.9327 15.248C35.002 12.24 37.0287 9.64797 39.0127 7.47197C41.018 5.29597 42.9487 3.61064 44.8047 2.41597C45.1034 2.09597 45.5194 1.7333 46.0527 1.32797C46.586 0.922638 47.098 0.719971 47.5887 0.719971C47.8874 0.719971 48.1327 0.805304 48.3247 0.97597C48.538 1.1253 48.6447 1.3173 48.6447 1.55197C48.6447 1.78664 48.4954 2.0533 48.1967 2.35197C47.9194 2.6293 47.514 2.8533 46.9807 3.02397C46.8314 3.06664 46.6607 3.11997 46.4687 3.18397C46.298 3.22664 46.106 3.2693 45.8927 3.31197C44.9967 4.65597 44.0047 6.39464 42.9167 8.52797C41.85 10.64 40.8687 12.9867 39.9727 15.568C39.482 16.9973 39.0127 18.4693 38.5647 19.984C38.138 21.4773 37.9247 22.864 37.9247 24.144C37.9247 24.6133 38.01 25.0613 38.1807 25.488C38.3514 25.9147 38.6714 26.128 39.1407 26.128C39.6954 26.128 40.3034 25.8293 40.9647 25.232C41.626 24.6133 42.2767 23.824 42.9167 22.864C43.5567 21.904 44.09 20.8907 44.5167 19.824C44.7727 19.824 44.9007 19.92 44.9007 20.112C44.3887 21.2853 43.7807 22.4267 43.0767 23.536C42.394 24.6453 41.6367 25.552 40.8047 26.256C39.994 26.9813 39.1407 27.344 38.2447 27.344C37.5407 27.344 36.9647 27.088 36.5167 26.576C36.09 26.064 35.8767 25.3067 35.8767 24.304C35.8767 23.4507 36.0154 22.4053 36.2927 21.168C36.5914 19.9093 36.986 18.5547 37.4767 17.104C37.9887 15.632 38.5434 14.1493 39.1407 12.656C39.9087 10.8 40.6554 9.17864 41.3807 7.79197C42.106 6.38397 42.778 5.21064 43.3967 4.27197C41.626 5.67997 39.802 7.53597 37.9247 9.83997C36.0687 12.1227 34.202 14.7467 32.3247 17.712C30.4474 20.6773 28.5807 23.888 26.7247 27.344C26.554 27.664 26.2874 27.8453 25.9247 27.888C25.5834 27.952 25.274 27.888 24.9967 27.696C24.7194 27.5253 24.5914 27.2267 24.6127 26.8ZM54.4259 22.896C53.9139 23.7493 53.2846 24.5067 52.5379 25.168C51.7913 25.808 50.8313 26.128 49.6579 26.128C48.8686 26.128 48.1539 25.872 47.5139 25.36C46.8953 24.848 46.5859 24.0693 46.5859 23.024C46.5859 22.1493 46.7779 21.2213 47.1619 20.24C47.5673 19.2587 48.0899 18.3413 48.7299 17.488C49.3913 16.6133 50.1166 15.9093 50.9059 15.376C51.7166 14.8213 52.5273 14.544 53.3379 14.544C53.7433 14.544 54.1379 14.6613 54.5219 14.896C54.9059 15.1307 55.0979 15.536 55.0979 16.112C55.0979 16.6453 54.8953 17.232 54.4899 17.872C54.0846 18.512 53.5086 19.1093 52.7619 19.664C52.4419 19.8987 52.0366 20.1227 51.5459 20.336C51.0553 20.5493 50.5646 20.7307 50.0739 20.88C49.5833 21.008 49.1779 21.072 48.8579 21.072C48.7513 21.328 48.6446 21.6693 48.5379 22.096C48.4526 22.5227 48.4099 22.96 48.4099 23.408C48.4099 23.9413 48.5166 24.4213 48.7299 24.848C48.9433 25.2747 49.3379 25.488 49.9139 25.488C50.8099 25.488 51.6099 25.168 52.3139 24.528C53.0179 23.888 53.6153 23.1733 54.1059 22.384C54.1913 22.384 54.2659 22.416 54.3299 22.48C54.3939 22.544 54.4259 22.6827 54.4259 22.896ZM49.0819 20.496C49.3806 20.496 49.8819 20.3893 50.5859 20.176C51.2899 19.9413 51.9299 19.5787 52.5059 19.088C53.0606 18.5973 53.4873 18.064 53.7859 17.488C54.0846 16.8907 54.2339 16.3893 54.2339 15.984C54.2339 15.5147 54.0633 15.28 53.7219 15.28C53.4659 15.28 53.1139 15.4507 52.6659 15.792C52.2179 16.1333 51.6633 16.7093 51.0019 17.52C50.5966 18.032 50.2126 18.5867 49.8499 19.184C49.4873 19.7813 49.2313 20.2187 49.0819 20.496ZM63.0964 20.944C62.5418 21.8827 62.0084 22.7467 61.4964 23.536C60.9844 24.3253 60.4511 24.9547 59.8964 25.424C59.3631 25.872 58.7551 26.096 58.0724 26.096C57.5604 26.096 57.1018 25.9467 56.6964 25.648C56.2911 25.328 56.0884 24.8693 56.0884 24.272C56.0884 23.9093 56.1738 23.5147 56.3444 23.088C56.4938 22.6613 56.7178 22.2987 57.0164 22C57.3364 21.7013 57.7204 21.5733 58.1684 21.616C58.4671 21.6373 58.7338 21.7547 58.9684 21.968C58.5844 22.3307 58.2858 22.7573 58.0724 23.248C57.8591 23.7387 57.7524 24.1653 57.7524 24.528C57.7524 24.7413 57.7951 24.944 57.8804 25.136C57.9871 25.3067 58.1684 25.392 58.4244 25.392C58.8298 25.392 59.2458 25.168 59.6724 24.72C60.1204 24.2507 60.5791 23.6533 61.0484 22.928C61.5391 22.1813 62.0191 21.4133 62.4884 20.624C63.1071 19.6213 63.7151 18.6933 64.3124 17.84C64.9311 16.9867 65.5071 16.3253 66.0404 15.856C66.7231 15.28 67.3738 14.992 67.9924 14.992H68.1204C68.9738 14.992 69.2084 15.3973 68.8244 16.208L67.7044 18.608C67.5124 18.992 67.2778 19.472 67.0004 20.048C66.7444 20.6027 66.4884 21.1787 66.2324 21.776C65.9978 22.352 65.8058 22.9067 65.6564 23.44C65.5284 23.952 65.4858 24.368 65.5284 24.688C65.5924 25.008 65.8058 25.168 66.1684 25.168C66.7018 25.168 67.2244 24.8907 67.7364 24.336C68.2698 23.7813 68.7711 23.0987 69.2404 22.288C69.7098 21.456 70.1258 20.6347 70.4884 19.824C70.5738 19.824 70.6591 19.856 70.7444 19.92C70.8298 19.9627 70.8724 20.0267 70.8724 20.112C70.4884 21.072 70.0404 22 69.5284 22.896C69.0378 23.792 68.4618 24.528 67.8004 25.104C67.1604 25.68 66.4138 25.968 65.5604 25.968C64.7284 25.968 64.2058 25.68 63.9924 25.104C63.8004 24.5067 63.8218 23.728 64.0564 22.768C64.3124 21.808 64.7071 20.7627 65.2404 19.632C65.7738 18.48 66.3604 17.36 67.0004 16.272C67.2351 15.888 67.2991 15.696 67.1924 15.696C67.1071 15.696 66.9578 15.7813 66.7444 15.952C66.5524 16.1013 66.3711 16.2613 66.2004 16.432C65.7951 16.816 65.3578 17.3493 64.8884 18.032C64.4191 18.7147 63.8218 19.6853 63.0964 20.944ZM75.2839 26C74.4093 26 73.7586 25.6907 73.3319 25.072C72.9266 24.432 72.7239 23.664 72.7239 22.768C72.7239 21.936 72.8839 21.072 73.2039 20.176C73.5453 19.1947 74.0146 18.2987 74.6119 17.488C75.2306 16.6773 75.9026 16.0267 76.6279 15.536C77.3746 15.024 78.1106 14.768 78.8359 14.768C79.7106 14.768 80.3506 15.0667 80.7559 15.664C81.1826 16.2613 81.3959 17.0187 81.3959 17.936C81.3959 18.576 81.2893 19.248 81.0759 19.952C80.8626 20.656 80.5746 21.3493 80.2119 22.032C80.4893 22.3093 80.8839 22.448 81.3959 22.448C81.9933 22.448 82.5053 22.256 82.9319 21.872C83.3586 21.488 83.7746 20.8053 84.1799 19.824C84.4359 19.824 84.5639 19.92 84.5639 20.112C84.1586 21.0933 83.6893 21.8187 83.1559 22.288C82.6439 22.736 81.9826 22.9493 81.1719 22.928C80.6813 22.928 80.2759 22.7893 79.9559 22.512C79.3586 23.4933 78.6439 24.3253 77.8119 25.008C77.0013 25.6693 76.1586 26 75.2839 26ZM75.7319 25.296C76.2226 25.296 76.7133 25.0933 77.2039 24.688C77.6946 24.2613 78.1426 23.7813 78.5479 23.248C78.9533 22.7147 79.2413 22.256 79.4119 21.872C79.0706 21.2533 78.8679 20.7947 78.8039 20.496C78.7613 20.176 78.7399 19.9413 78.7399 19.792C78.7399 19.3867 78.8466 19.0773 79.0599 18.864C79.2733 18.6507 79.4866 18.544 79.6999 18.544C79.9986 18.544 80.2546 18.672 80.4679 18.928C80.5106 18.6933 80.5426 18.48 80.5639 18.288C80.5853 18.0747 80.5959 17.872 80.5959 17.68C80.5959 17.1253 80.4893 16.6773 80.2759 16.336C80.0839 15.9733 79.7746 15.792 79.3479 15.792C78.8999 15.792 78.4306 15.984 77.9399 16.368C77.4493 16.752 76.9799 17.264 76.5319 17.904C76.1053 18.544 75.7319 19.2587 75.4119 20.048C75.1346 20.7093 74.9213 21.3387 74.7719 21.936C74.6226 22.512 74.5479 23.0453 74.5479 23.536C74.5479 24.0693 74.6439 24.496 74.8359 24.816C75.0279 25.136 75.3266 25.296 75.7319 25.296ZM87.8564 26C87.0458 26 86.4484 25.7333 86.0644 25.2C85.6804 24.6453 85.4884 23.9733 85.4884 23.184C85.4884 22.352 85.6804 21.456 86.0644 20.496C86.4484 19.5147 86.9604 18.5973 87.6004 17.744C88.2404 16.8693 88.9551 16.1547 89.7444 15.6C90.5338 15.0453 91.3231 14.768 92.1124 14.768C92.7311 14.768 93.2538 14.9707 93.6804 15.376C94.1071 15.7813 94.3098 16.2613 94.2884 16.816C94.9284 15.3653 95.4511 13.9147 95.8564 12.464C96.2831 10.992 96.4964 9.5093 96.4964 8.01597C96.4964 6.86397 96.3258 5.9893 95.9844 5.39197C95.6431 4.7733 95.2271 4.34664 94.7364 4.11197C94.2458 3.8773 93.7764 3.75997 93.3284 3.75997C92.4111 3.75997 91.4831 4.1653 90.5444 4.97597C89.6058 5.78664 88.8058 7.03464 88.1444 8.71997C88.0804 8.8693 88.0271 9.00797 87.9844 9.13597C87.9631 9.24264 87.9311 9.42397 87.8884 9.67997C87.0778 9.67997 86.6724 9.4453 86.6724 8.97597C86.6724 8.69864 86.7791 8.36797 86.9924 7.98397C87.2058 7.57864 87.3871 7.25864 87.5364 7.02397C88.3258 5.8293 89.2964 4.89064 90.4484 4.20797C91.6004 3.5253 92.7311 3.18397 93.8404 3.18397C94.6084 3.18397 95.3231 3.3653 95.9844 3.72797C96.6458 4.0693 97.1791 4.60264 97.5844 5.32797C97.9898 6.0533 98.1924 6.99197 98.1924 8.14397C98.1924 9.3813 98.0004 10.7573 97.6164 12.272C97.2538 13.7653 96.7524 15.28 96.1124 16.816C95.4938 18.3307 94.7684 19.7387 93.9364 21.04C93.1258 22.3413 92.2724 23.4187 91.3764 24.272C90.8858 24.7413 90.3418 25.1467 89.7444 25.488C89.1684 25.8293 88.5391 26 87.8564 26ZM88.3044 25.296C88.9018 25.296 89.5098 24.976 90.1284 24.336C90.7471 23.6747 91.3231 22.896 91.8564 22C92.0911 21.616 92.3471 21.1573 92.6244 20.624C92.9018 20.0693 93.1684 19.5253 93.4244 18.992C93.6804 18.4373 93.8511 17.9787 93.9364 17.616C93.8724 16.912 93.7231 16.432 93.4884 16.176C93.2751 15.92 93.0084 15.792 92.6884 15.792C92.1124 15.792 91.5044 16.0693 90.8644 16.624C90.2458 17.1573 89.6591 17.8507 89.1044 18.704C88.5711 19.5573 88.1338 20.4427 87.7924 21.36C87.4511 22.2773 87.2804 23.12 87.2804 23.888C87.2804 24.272 87.3551 24.6027 87.5044 24.88C87.6538 25.1573 87.9204 25.296 88.3044 25.296ZM100.841 25.264C101.353 25.264 101.972 24.848 102.697 24.016C103.295 23.312 103.881 22.4693 104.457 21.488C105.033 20.5067 105.577 19.4933 106.089 18.448C106.623 17.4027 107.092 16.464 107.497 15.632C107.732 15.1627 108.148 14.928 108.745 14.928H110.505C110.036 15.312 109.556 15.888 109.065 16.656C108.596 17.424 108.073 18.4053 107.497 19.6C107.348 19.92 107.156 20.3253 106.921 20.816C106.687 21.3067 106.473 21.8293 106.281 22.384C106.111 22.9387 106.025 23.4933 106.025 24.048C106.025 24.7947 106.292 25.168 106.825 25.168C107.316 25.168 107.807 24.9227 108.297 24.432C108.788 23.92 109.268 23.2373 109.737 22.384C110.015 22.384 110.153 22.4693 110.153 22.64C109.684 23.5147 109.129 24.2933 108.489 24.976C107.871 25.6587 107.156 26 106.345 26C105.812 26 105.375 25.808 105.033 25.424C104.692 25.0187 104.521 24.4533 104.521 23.728C104.521 23.152 104.628 22.5333 104.841 21.872C104.479 22.512 104.063 23.152 103.593 23.792C103.124 24.432 102.623 24.9653 102.089 25.392C101.556 25.7973 101.023 26 100.489 26C100.255 26 99.9668 25.9467 99.6254 25.84C99.3054 25.7333 99.0174 25.5413 98.7614 25.264C98.5268 24.9653 98.4094 24.528 98.4094 23.952C98.4094 23.3973 98.5268 22.7467 98.7614 22C98.9961 21.2533 99.2841 20.4747 99.6254 19.664C99.9881 18.8533 100.351 18.096 100.713 17.392C101.097 16.6667 101.417 16.08 101.673 15.632C101.929 15.1627 102.335 14.928 102.889 14.928H104.873C104.639 15.12 104.404 15.3227 104.169 15.536C103.935 15.7493 103.668 16.0693 103.369 16.496C103.092 16.9227 102.729 17.552 102.281 18.384C102.089 18.7253 101.876 19.1733 101.641 19.728C101.407 20.2613 101.172 20.816 100.937 21.392C100.703 21.968 100.511 22.512 100.361 23.024C100.212 23.5147 100.137 23.9093 100.137 24.208C100.137 24.912 100.372 25.264 100.841 25.264ZM113.976 25.52C114.338 25.52 114.786 25.3173 115.32 24.912C115.874 24.4853 116.45 23.952 117.048 23.312C117.645 22.6507 118.2 21.9573 118.712 21.232C118.456 21.296 118.189 21.328 117.912 21.328C117.144 21.328 116.578 21.1253 116.216 20.72C115.874 20.3147 115.704 19.8133 115.704 19.216C115.704 18.576 115.885 17.9147 116.248 17.232C116.61 16.528 117.112 15.9413 117.752 15.472C118.413 15.0027 119.149 14.768 119.96 14.768C121.026 14.768 121.666 15.2267 121.88 16.144C121.944 15.9733 122.018 15.8133 122.104 15.664C122.232 15.408 122.402 15.2373 122.616 15.152C122.829 15.0453 123.085 14.992 123.384 14.992H125.112C124.92 15.1413 124.557 15.4933 124.024 16.048C123.512 16.5813 122.914 17.5413 122.232 18.928C121.997 19.3973 121.741 19.952 121.464 20.592C121.186 21.232 120.952 21.8827 120.76 22.544C120.568 23.2053 120.472 23.792 120.472 24.304C120.472 25.008 120.717 25.36 121.208 25.36C121.613 25.36 122.018 25.1787 122.424 24.816C122.85 24.432 123.256 23.952 123.64 23.376C124.045 22.8 124.418 22.2027 124.76 21.584C125.101 20.944 125.378 20.3573 125.592 19.824C125.848 19.824 125.976 19.92 125.976 20.112C125.741 20.6667 125.442 21.296 125.08 22C124.738 22.704 124.333 23.3867 123.864 24.048C123.394 24.688 122.872 25.2213 122.296 25.648C121.741 26.0533 121.122 26.256 120.44 26.256C119.842 26.256 119.416 26.0853 119.16 25.744C118.925 25.4027 118.808 24.9547 118.808 24.4C118.808 23.8667 118.893 23.2907 119.064 22.672C119.234 22.0533 119.437 21.4453 119.672 20.848V20.88C119.032 21.7547 118.37 22.5973 117.688 23.408C117.005 24.2187 116.312 24.8907 115.608 25.424C114.904 25.9573 114.232 26.224 113.592 26.224C112.973 26.224 112.493 26.0427 112.152 25.68C111.81 25.3173 111.64 24.8587 111.64 24.304C111.64 23.8773 111.746 23.472 111.96 23.088C112.173 22.704 112.44 22.384 112.76 22.128C113.08 21.872 113.41 21.744 113.752 21.744C113.901 21.744 114.04 21.7653 114.168 21.808C114.317 21.8507 114.456 21.9253 114.584 22.032C114.178 22.3733 113.869 22.7893 113.656 23.28C113.442 23.7707 113.336 24.1973 113.336 24.56C113.336 24.816 113.378 25.04 113.464 25.232C113.57 25.424 113.741 25.52 113.976 25.52ZM118.232 20.848C118.765 20.848 119.234 20.6347 119.64 20.208C120.045 19.76 120.365 19.216 120.6 18.576C120.856 17.9147 120.984 17.2853 120.984 16.688C120.984 15.7707 120.706 15.312 120.152 15.312C119.81 15.312 119.469 15.4613 119.128 15.76C118.786 16.0373 118.466 16.4107 118.168 16.88C117.869 17.328 117.624 17.7973 117.432 18.288C117.261 18.7787 117.176 19.2267 117.176 19.632C117.176 19.9733 117.25 20.2613 117.4 20.496C117.57 20.7307 117.848 20.848 118.232 20.848ZM28.0654 32.368C28.1081 32.304 28.1828 32.272 28.2894 32.272C28.4601 32.272 28.5348 32.3147 28.5134 32.4C28.5134 32.464 28.4708 32.5707 28.3854 32.72C28.2148 32.9973 27.9694 33.3173 27.6494 33.68C27.3508 34.0213 26.9774 34.32 26.5294 34.576C26.0814 34.832 25.5374 34.96 24.8974 34.96C24.3641 34.96 23.7988 34.8533 23.2014 34.64C22.6254 34.4053 22.0388 34.1493 21.4414 33.872C20.8654 33.5947 20.3214 33.3493 19.8094 33.136C19.2974 32.9013 18.8494 32.784 18.4654 32.784C17.8468 32.784 17.3561 32.9867 16.9934 33.392C16.6308 33.776 16.4494 34.2773 16.4494 34.896C16.4494 35.472 16.5881 36.1653 16.8654 36.976C17.1641 37.7653 17.4948 38.6293 17.8574 39.568C18.2201 40.4853 18.5401 41.4347 18.8174 42.416C19.1161 43.376 19.2654 44.3147 19.2654 45.232C19.2654 46.2347 19.0734 47.2587 18.6894 48.304C18.3054 49.328 17.7828 50.2773 17.1214 51.152C16.4814 52.0053 15.7561 52.6987 14.9454 53.232C14.1561 53.744 13.3454 54 12.5134 54C11.6814 54 11.0734 53.7333 10.6894 53.2C10.3054 52.6453 10.1134 51.9733 10.1134 51.184C10.1134 50.224 10.3374 49.2213 10.7854 48.176C11.1908 47.1947 11.7241 46.2987 12.3854 45.488C13.0681 44.6773 13.8041 44.0267 14.5934 43.536C15.3828 43.024 16.1614 42.768 16.9294 42.768C17.1001 42.768 17.2814 42.7893 17.4734 42.832C17.6868 42.8533 17.9108 42.9173 18.1454 43.024C17.8468 42 17.4948 40.9547 17.0894 39.888C16.6841 38.8 16.3214 37.7867 16.0014 36.848C15.6814 35.888 15.5214 35.0667 15.5214 34.384C15.5214 33.5093 15.8201 32.7733 16.4174 32.176C17.0148 31.5787 17.8681 31.28 18.9774 31.28C19.5961 31.28 20.1934 31.3973 20.7694 31.632C21.3668 31.8453 21.9428 32.1013 22.4974 32.4C23.0734 32.6773 23.6388 32.9333 24.1934 33.168C24.7481 33.3813 25.3028 33.488 25.8574 33.488C26.4334 33.488 26.8921 33.392 27.2334 33.2C27.5748 32.9867 27.8521 32.7093 28.0654 32.368ZM18.0814 45.456C18.0814 45.264 18.0601 45.04 18.0174 44.784C17.9961 44.5067 17.9108 44.272 17.7614 44.08C17.6334 43.888 17.4201 43.792 17.1214 43.792C16.6094 43.792 15.9694 44.1547 15.2014 44.88C14.4334 45.6053 13.7081 46.6613 13.0254 48.048C12.6841 48.7733 12.4068 49.4773 12.1934 50.16C12.0014 50.8213 11.9054 51.3973 11.9054 51.888C11.9054 52.3147 11.9908 52.656 12.1614 52.912C12.3321 53.168 12.6201 53.296 13.0254 53.296C13.5588 53.296 14.1134 53.0827 14.6894 52.656C15.2868 52.208 15.8414 51.6107 16.3534 50.864C16.8654 50.1173 17.2814 49.2747 17.6014 48.336C17.9214 47.3973 18.0814 46.4373 18.0814 45.456ZM30.6467 54.096C30.156 54.096 29.7187 53.9573 29.3347 53.68C28.972 53.4027 28.7907 52.8373 28.7907 51.984C28.7907 51.6213 28.812 51.28 28.8547 50.96C28.9187 50.64 28.9934 50.2987 29.0787 49.936C28.8867 50.256 28.62 50.6507 28.2787 51.12C27.9374 51.5893 27.5534 52.048 27.1267 52.496C26.7214 52.944 26.2947 53.3173 25.8467 53.616C25.42 53.9147 25.0147 54.064 24.6307 54.064C24.076 54.064 23.628 53.8187 23.2867 53.328C22.9454 52.816 22.7747 52.1547 22.7747 51.344C22.7747 50.4693 22.9774 49.5307 23.3827 48.528C23.788 47.5253 24.3427 46.5653 25.0467 45.648C25.7507 44.7307 26.5614 43.984 27.4787 43.408C28.396 42.832 29.356 42.544 30.3587 42.544C30.8494 42.544 31.3187 42.6293 31.7667 42.8C32.2147 42.9493 32.6094 43.2053 32.9507 43.568C33.1 43.7173 33.1747 43.888 33.1747 44.08C33.1747 44.208 33.1214 44.3147 33.0147 44.4C32.908 44.4853 32.7694 44.5067 32.5987 44.464C32.364 43.7173 31.8627 43.344 31.0947 43.344C30.732 43.344 30.316 43.4613 29.8467 43.696C29.2707 43.9947 28.652 44.4747 27.9907 45.136C27.3507 45.776 26.7427 46.512 26.1667 47.344C25.612 48.1547 25.1534 48.976 24.7907 49.808C24.428 50.64 24.2467 51.3973 24.2467 52.08C24.2467 52.784 24.5134 53.136 25.0467 53.136C25.516 53.136 25.996 52.912 26.4867 52.464C26.9987 52.016 27.4787 51.4613 27.9267 50.8C28.396 50.1173 28.8227 49.4453 29.2067 48.784C29.5907 48.1227 29.8894 47.5893 30.1027 47.184C30.4227 46.608 30.7214 46.128 30.9987 45.744C31.276 45.36 31.6707 45.168 32.1827 45.168C32.4174 45.168 32.652 45.2 32.8867 45.264C33.1214 45.328 33.3667 45.3387 33.6227 45.296C32.9827 45.936 32.4174 46.6933 31.9267 47.568C31.4574 48.4427 31.0947 49.3067 30.8387 50.16C30.5827 50.992 30.4547 51.696 30.4547 52.272C30.4547 52.912 30.668 53.232 31.0947 53.232C31.436 53.232 31.7987 53.04 32.1827 52.656C32.588 52.272 32.972 51.792 33.3347 51.216C33.7187 50.6187 34.0707 50.0213 34.3907 49.424C34.7107 48.8053 34.9667 48.272 35.1587 47.824C35.2654 47.824 35.3507 47.8347 35.4147 47.856C35.5 47.8773 35.5427 47.9627 35.5427 48.112C35.5214 48.1973 35.4787 48.2933 35.4147 48.4C35.372 48.4853 35.2974 48.6453 35.1907 48.88C35.02 49.2213 34.7854 49.68 34.4867 50.256C34.188 50.832 33.836 51.4187 33.4307 52.016C33.0254 52.592 32.588 53.0827 32.1187 53.488C31.6494 53.8933 31.1587 54.096 30.6467 54.096ZM40.8034 54.128C39.6301 54.128 38.7554 53.8187 38.1794 53.2C37.6248 52.5813 37.3474 51.7493 37.3474 50.704C37.3474 50.2133 37.4434 49.648 37.6354 49.008C37.8274 48.368 38.0834 47.7173 38.4034 47.056C38.7234 46.3947 39.0754 45.808 39.4594 45.296C40.0781 44.464 40.7608 43.824 41.5074 43.376C42.2541 42.9067 43.0114 42.672 43.7794 42.672C44.5901 42.672 45.1661 42.8533 45.5074 43.216C45.8701 43.5573 46.0514 43.9627 46.0514 44.432C46.0514 44.88 45.9448 45.2853 45.7314 45.648C45.5181 45.9893 45.2728 46.2667 44.9954 46.48C44.7394 46.6933 44.5154 46.8 44.3234 46.8C44.1528 46.8 44.0034 46.736 43.8754 46.608C44.0461 46.3947 44.2274 46.1387 44.4194 45.84C44.6114 45.5413 44.7501 45.2533 44.8354 44.976C44.9208 44.72 44.9634 44.464 44.9634 44.208C44.9634 43.6533 44.7074 43.376 44.1954 43.376C43.5768 43.376 42.9688 43.632 42.3714 44.144C41.7954 44.656 41.2621 45.3173 40.7714 46.128C40.3021 46.9173 39.9181 47.76 39.6194 48.656C39.3421 49.5307 39.2034 50.3413 39.2034 51.088C39.2034 51.7707 39.3421 52.336 39.6194 52.784C39.9181 53.232 40.3981 53.456 41.0594 53.456C41.9341 53.456 42.7021 53.1787 43.3634 52.624C44.0248 52.048 44.6114 51.3333 45.1234 50.48C45.6354 49.6053 46.0834 48.72 46.4674 47.824C46.5528 47.824 46.6381 47.8453 46.7234 47.888C46.8088 47.9093 46.8514 47.984 46.8514 48.112C46.4248 49.1787 45.9234 50.1707 45.3474 51.088C44.7714 52.0053 44.1101 52.7413 43.3634 53.296C42.6381 53.8507 41.7848 54.128 40.8034 54.128ZM56.2817 54.096C55.791 54.096 55.3537 53.9573 54.9697 53.68C54.607 53.4027 54.4257 52.8373 54.4257 51.984C54.4257 51.6213 54.447 51.28 54.4897 50.96C54.5537 50.64 54.6284 50.2987 54.7137 49.936C54.5217 50.256 54.255 50.6507 53.9137 51.12C53.5724 51.5893 53.1884 52.048 52.7617 52.496C52.3564 52.944 51.9297 53.3173 51.4817 53.616C51.055 53.9147 50.6497 54.064 50.2657 54.064C49.711 54.064 49.263 53.8187 48.9217 53.328C48.5804 52.816 48.4097 52.1547 48.4097 51.344C48.4097 50.4693 48.6124 49.5307 49.0177 48.528C49.423 47.5253 49.9777 46.5653 50.6817 45.648C51.3857 44.7307 52.1964 43.984 53.1137 43.408C54.031 42.832 54.991 42.544 55.9937 42.544C56.4844 42.544 56.9537 42.6293 57.4017 42.8C57.8497 42.9493 58.2444 43.2053 58.5857 43.568C58.735 43.7173 58.8097 43.888 58.8097 44.08C58.8097 44.208 58.7564 44.3147 58.6497 44.4C58.543 44.4853 58.4044 44.5067 58.2337 44.464C57.999 43.7173 57.4977 43.344 56.7297 43.344C56.367 43.344 55.951 43.4613 55.4817 43.696C54.9057 43.9947 54.287 44.4747 53.6257 45.136C52.9857 45.776 52.3777 46.512 51.8017 47.344C51.247 48.1547 50.7884 48.976 50.4257 49.808C50.063 50.64 49.8817 51.3973 49.8817 52.08C49.8817 52.784 50.1484 53.136 50.6817 53.136C51.151 53.136 51.631 52.912 52.1217 52.464C52.6337 52.016 53.1137 51.4613 53.5617 50.8C54.031 50.1173 54.4577 49.4453 54.8417 48.784C55.2257 48.1227 55.5244 47.5893 55.7377 47.184C56.0577 46.608 56.3564 46.128 56.6337 45.744C56.911 45.36 57.3057 45.168 57.8177 45.168C58.0524 45.168 58.287 45.2 58.5217 45.264C58.7564 45.328 59.0017 45.3387 59.2577 45.296C58.6177 45.936 58.0524 46.6933 57.5617 47.568C57.0924 48.4427 56.7297 49.3067 56.4737 50.16C56.2177 50.992 56.0897 51.696 56.0897 52.272C56.0897 52.912 56.303 53.232 56.7297 53.232C57.071 53.232 57.4337 53.04 57.8177 52.656C58.223 52.272 58.607 51.792 58.9697 51.216C59.3537 50.6187 59.7057 50.0213 60.0257 49.424C60.3457 48.8053 60.6017 48.272 60.7937 47.824C60.9004 47.824 60.9857 47.8347 61.0497 47.856C61.135 47.8773 61.1777 47.9627 61.1777 48.112C61.1564 48.1973 61.1137 48.2933 61.0497 48.4C61.007 48.4853 60.9324 48.6453 60.8257 48.88C60.655 49.2213 60.4204 49.68 60.1217 50.256C59.823 50.832 59.471 51.4187 59.0657 52.016C58.6604 52.592 58.223 53.0827 57.7537 53.488C57.2844 53.8933 56.7937 54.096 56.2817 54.096Z" fill="#F3F3F3"/>
</g>
</g>
<defs>
<clipPath id="clip0_2_645">
<rect width="181" height="71" fill="white" transform="translate(0.5)"/>
</clipPath>
</defs>
</svg>
